<svg width="825" height="709" viewBox="0 0 825 709" fill="none" xmlns="http://www.w3.org/2000/svg">
<path d="M21 440L1 494L5.5 565L46.5 504.5L63 457.5L110.5 427L154.5 400.5L136.5 483L100.5 504.5L78 542.5L95.5 608L110.5 540.5L171 492.5L183.5 427L235.5 392L218 440L227.5 483L195.5 542.5L154.5 581.5V678.5L253 708L195.5 650L209 574L283.5 509.5L266 457.5L302.5 427L346 504.5L311 581.5L353 631.5L316 678.5L390 650L353 581.5L375 525.5L364.5 467.5L470 551.5L503.5 631.5L573 671.5L528 621.5L503.5 534.5L419 452.5V427L519 498.5L604.5 534.5L628.5 606.5L675 650L653.5 606.5L628.5 534.5L573 483L499 457.5L470 433L454.5 410H483L609 457.5C641.333 473.167 677.5 504.5 677.5 504.5L724.5 525.5L793 557L739.5 504.5L691.5 467.5L621.5 421.5L477 368.5L528 358.5L643 352L724.5 358.5L775 440L824 483L814 427L739.5 329.5L634 314.5H477C477 314.5 390 290.5 390 242.5C390 194.5 430.5 170 430.5 106C430.5 42 390 0.5 316 0.5C242 0.5 209 48.5 209 106C209 163.5 266 190.5 266 242.5C266 294.5 203.5 346.5 203.5 346.5L90 392L21 440Z" stroke="black"/>
</svg>
